<svg width="18" height="18" viewBox="0 0 18 18" fill="none" xmlns="http://www.w3.org/2000/svg">
<path d="M13.6275 8.50011H14.2311L13.8043 8.07333L10.8943 5.16333C10.6994 4.96846 10.6994 4.65425 10.8943 4.45938C11.0904 4.26323 11.4103 4.26657 11.5959 4.45707L11.5985 4.4597L15.7982 8.64438C15.7983 8.64444 15.7983 8.64449 15.7984 8.64455C15.9931 8.83943 15.993 9.15352 15.7982 9.34833L11.6057 13.5408C11.4109 13.7357 11.0966 13.7357 10.9018 13.5408C10.7069 13.346 10.7069 13.0318 10.9018 12.8369L13.8118 9.92688L14.2386 9.50011H13.635H2.25C1.97557 9.50011 1.75 9.27454 1.75 9.00011C1.75 8.72568 1.97557 8.50011 2.25 8.50011H13.6275Z" fill="white" stroke="#F9F9F9" stroke-width="0.5"/>
</svg>
