<svg width="36" height="36" viewBox="0 0 36 36" fill="none" xmlns="http://www.w3.org/2000/svg">
<path d="M27.45 8.56508C26.865 7.98008 25.92 7.98008 25.335 8.56508L18 15.8851L10.665 8.55008C10.08 7.96508 9.13499 7.96508 8.54999 8.55008C7.96499 9.13508 7.96499 10.0801 8.54999 10.6651L15.885 18.0001L8.54999 25.3351C7.96499 25.9201 7.96499 26.8651 8.54999 27.4501C9.13499 28.0351 10.08 28.0351 10.665 27.4501L18 20.1151L25.335 27.4501C25.92 28.0351 26.865 28.0351 27.45 27.4501C28.035 26.8651 28.035 25.9201 27.45 25.3351L20.115 18.0001L27.45 10.6651C28.02 10.0951 28.02 9.13508 27.45 8.56508V8.56508Z" fill="#0F0D16"/>
</svg>
